<svg width="12" height="12" viewBox="0 0 12 12" fill="none" xmlns="http://www.w3.org/2000/svg">
<path fill-rule="evenodd" clip-rule="evenodd" d="M7.06045 1.35041C5.82733 1.35041 4.64471 1.84027 3.77276 2.71222C2.90081 3.58417 2.41095 4.76679 2.41095 5.99991C2.41095 7.23304 2.90081 8.41566 3.77276 9.28761C4.64471 10.1596 5.82733 10.6494 7.06045 10.6494V11.3499C4.10545 11.3499 1.71045 8.95441 1.71045 5.99941C1.71045 3.04441 4.10495 0.649414 7.05995 0.649414V1.34991L7.06045 1.35041ZM9.43645 3.18891C9.06704 2.87532 8.63928 2.63785 8.17777 2.49016C7.71626 2.34246 7.23011 2.28746 6.74727 2.3283C6.26443 2.36915 5.79443 2.50504 5.36429 2.72816C4.93415 2.95129 4.55236 3.25724 4.24088 3.62843C3.9294 3.99962 3.69436 4.42872 3.5493 4.89106C3.40423 5.3534 3.35199 5.83986 3.39558 6.32246C3.43917 6.80506 3.57774 7.27428 3.8033 7.70315C4.02887 8.13201 4.33699 8.51205 4.70995 8.82141L4.25945 9.35841C3.81901 8.98897 3.45567 8.53639 3.19017 8.02651C2.92466 7.51663 2.7622 6.95944 2.71205 6.38677C2.66191 5.81409 2.72506 5.23715 2.89791 4.68889C3.07076 4.14062 3.34992 3.63178 3.71945 3.19141C4.08894 2.75096 4.54156 2.38761 5.05149 2.1221C5.56141 1.85658 6.11864 1.69412 6.69135 1.64397C7.26407 1.59383 7.84105 1.65699 8.38935 1.82985C8.93766 2.0027 9.44654 2.28187 9.88695 2.65141L9.43645 3.18891ZM8.30895 3.61091C7.67561 3.28379 6.9387 3.22004 6.25859 3.43353C5.57849 3.64703 5.01022 4.12049 4.67745 4.75088C4.34469 5.38128 4.27436 6.11758 4.48177 6.79957C4.68918 7.48156 5.15755 8.05403 5.78495 8.39241L5.45695 9.01241C4.67329 8.58271 4.09 7.86212 3.83294 7.00615C3.57589 6.15018 3.66568 5.22746 4.08294 4.4371C4.5002 3.64675 5.21147 3.05214 6.06327 2.78158C6.91507 2.51102 7.8391 2.5862 8.63595 2.99091L8.30895 3.61091ZM7.05995 4.26941C6.60099 4.26941 6.16083 4.45173 5.8363 4.77627C5.51177 5.1008 5.32945 5.54096 5.32945 5.99991C5.32945 6.45887 5.51177 6.89903 5.8363 7.22356C6.16083 7.54809 6.60099 7.73041 7.05995 7.73041V8.43141C6.41508 8.43141 5.79661 8.17524 5.34062 7.71924C4.88462 7.26325 4.62845 6.64479 4.62845 5.99991C4.62845 5.35504 4.88462 4.73658 5.34062 4.28058C5.79661 3.82459 6.41508 3.56841 7.05995 3.56841V4.26941Z" fill="#F15A29"/>
<path d="M7.7037 5.41788C7.62916 5.33761 7.54325 5.26871 7.4487 5.21338C7.36635 5.16446 7.27249 5.13823 7.1767 5.13738C7.0492 5.13738 6.9352 5.16088 6.8347 5.20738C6.73756 5.25114 6.65028 5.3141 6.5781 5.39246C6.50593 5.47082 6.45034 5.56298 6.4147 5.66338C6.3777 5.76488 6.3597 5.87138 6.3597 5.97888C6.3597 6.08788 6.3777 6.19388 6.4147 6.29438C6.45064 6.39468 6.50633 6.48676 6.57847 6.56517C6.65061 6.64358 6.73774 6.70673 6.8347 6.75088C6.9347 6.79738 7.0497 6.82088 7.1767 6.82088C7.2847 6.82088 7.3852 6.79788 7.4777 6.75338C7.5717 6.70838 7.6527 6.64088 7.7152 6.55738L8.1792 7.06038C8.1092 7.13038 8.0292 7.19088 7.9382 7.24188C7.76991 7.33574 7.58675 7.4 7.3967 7.43188C7.3117 7.44488 7.2382 7.45188 7.1767 7.45188C6.97495 7.45314 6.77467 7.41756 6.5857 7.34688C6.40705 7.2808 6.2436 7.17926 6.1052 7.04838C5.96758 6.9169 5.85804 6.75889 5.7832 6.58388C5.70189 6.39269 5.66136 6.18663 5.6642 5.97888C5.6642 5.75688 5.7042 5.55538 5.7832 5.37388C5.8582 5.19888 5.9672 5.04088 6.1047 4.90938C6.2437 4.77888 6.4072 4.67738 6.5857 4.61138C6.77467 4.5407 6.97495 4.50512 7.1767 4.50638C7.3542 4.50638 7.5327 4.54038 7.7127 4.60838C7.8932 4.67738 8.0552 4.78838 8.1847 4.93288L7.7037 5.41788Z" fill="black"/>
</svg>
